<svg width="200" height="200" viewBox="0 0 200 200" fill="none" xmlns="http://www.w3.org/2000/svg">
<g clip-path="url(#clip0_283_42)">
<rect width="200" height="200" rx="56" fill="white"/>
<path d="M54.8289 199.869C50.9274 199.711 50.1888 199.612 46.401 198.96C41.8556 198.149 37.9162 197.022 34.0905 195.42C26.6663 192.297 19.8482 187.433 14.7157 181.58C7.31052 173.138 2.72724 163.292 0.946958 152.002C0 146.011 0 146.071 0 99.8251C0 53.7969 0.0189392 53.0654 0.928019 47.4305C2.49997 37.6633 6.64765 28.2916 12.765 20.5412C15.6059 16.9823 20.2649 12.5337 23.7497 10.082C26.4391 8.18397 32.1398 4.92166 32.7648 4.92166C32.8594 4.92166 33.2193 4.74372 33.5602 4.546C34.9996 3.65628 42.2912 1.36278 43.6548 1.36278C43.9957 1.36278 44.3366 1.2837 44.3934 1.20461C44.4502 1.10575 45.2457 0.908039 46.1547 0.769638C47.0638 0.631237 48.2002 0.433522 48.6737 0.314893C49.2418 0.176492 60.1318 0.0776341 80.8323 0.038091C111.362 -0.0409951 112.12 -0.0212236 112.12 0.334664C112.12 0.690552 110.832 3.61674 107.764 10.1611C106.949 11.901 105.662 14.669 104.923 16.2903C103.389 19.6119 101.609 23.4476 99.6011 27.8171C98.8624 29.4186 97.7071 31.89 97.0632 33.2938C96.4003 34.7174 95.0367 37.6436 94.0329 39.8184C91.1542 46.0069 89.0709 50.4753 87.783 53.2631C87.1391 54.6866 86.0785 56.9406 85.4346 58.3048C83.7869 61.7648 83.3513 62.9511 83.124 64.5131C82.6884 67.8149 84.1656 70.9784 87.158 73.1137C87.802 73.5882 92.5746 76.9296 97.7261 80.5478C102.878 84.166 107.499 87.3888 107.972 87.7447C109.885 89.0891 110.699 90.5522 110.548 92.3712C110.453 93.4191 110.188 94.0122 107.442 98.9947C105.794 102 104.203 104.906 103.919 105.46C103.389 106.429 102.878 107.358 101.003 110.699C100.491 111.629 99.9988 112.518 99.942 112.677C99.8662 112.835 99.6011 113.329 99.3359 113.764C99.0897 114.199 98.7109 114.871 98.5026 115.247C98.0859 116.058 96.211 119.458 93.086 125.133C91.8549 127.367 90.2641 130.253 89.5444 131.558C88.8247 132.863 88.1618 134.069 88.0482 134.228C87.9535 134.386 87.2906 135.592 86.5899 136.897C85.8702 138.202 84.8475 140.04 84.3361 140.97C83.8058 141.899 83.105 143.421 82.7831 144.331C82.4422 145.24 82.1013 146.17 82.0066 146.387C81.7036 147.079 79.8286 152.615 78.8816 155.522C77.6884 159.239 77.9347 159.851 79.6392 157.558C80.0558 157.004 83.1997 152.872 86.6088 148.404C92.8208 140.258 93.9193 138.834 95.3966 136.936C95.8322 136.363 97.4041 134.307 98.9003 132.369C102.063 128.237 101.817 128.553 105.093 124.243C106.495 122.404 111.533 115.82 116.286 109.632C127.65 94.7833 127.025 95.6335 127.65 94.3088C129.108 91.2244 128.824 88.0215 126.836 85.0953C125.87 83.6717 125.358 83.2763 118.654 78.5707C115.737 76.5342 110.889 73.1137 107.859 70.9982C104.847 68.8826 102.082 66.8857 101.741 66.5298C100.832 65.6598 100.34 64.5329 100.226 63.1093C100.093 61.3694 100.378 60.4599 102.271 56.6242C106.552 47.9643 107.461 46.1058 109.752 41.5979C110.624 39.8975 112.29 36.5166 114.771 31.5144C115.624 29.7745 116.741 27.5601 117.233 26.5715C118.275 24.5548 122.461 16.0926 125.15 10.6554C126.135 8.63871 127.707 5.49504 128.635 3.67605C129.544 1.85707 130.301 0.255578 130.301 0.15672C130.301 -0.00145203 133.351 -0.0212236 140.017 0.038091C151.078 0.136949 151.949 0.216035 158.331 1.79776C161.968 2.68748 167.46 4.78326 170.093 6.26613C176.002 9.60752 179.714 12.4151 183.786 16.666C186.702 19.7108 188.274 21.7077 190.433 25.0886C196.077 33.9661 198.899 42.5667 199.808 53.6585C200.054 56.8417 200.073 140.989 199.808 144.805C199.032 156.194 195.964 165.921 190.358 174.68C188.009 178.338 185.945 180.908 183.009 183.854C178.805 188.065 174.941 190.932 169.865 193.562C168.218 194.432 166.816 195.124 166.74 195.124C166.665 195.124 165.85 195.44 164.903 195.836C160.301 197.734 155.434 198.9 148.957 199.711C146.779 199.968 60.7379 200.126 54.8289 199.869Z" fill="#F6339A"/>
</g>
<defs>
<clipPath id="clip0_283_42">
<rect width="200" height="200" rx="56" fill="white"/>
</clipPath>
</defs>
</svg>
